<svg width="32" height="32" viewBox="0 0 32 32" fill="none" xmlns="http://www.w3.org/2000/svg">
<g clip-path="url(#clip0_61_239)">
<path d="M1.33325 5.33335V13.3333M1.33325 13.3333H9.33325M1.33325 13.3333L7.51992 7.52001C9.36114 5.68191 11.7499 4.49197 14.3262 4.1295C16.9025 3.76703 19.5268 4.25166 21.8037 5.51037C24.0806 6.76907 25.8868 8.73367 26.9501 11.1081C28.0134 13.4826 28.2762 16.1383 27.6989 18.6752C27.1216 21.212 25.7355 23.4925 23.7494 25.173C21.7634 26.8536 19.2849 27.8431 16.6875 27.9926C14.0902 28.1421 11.5146 27.4434 9.34879 26.0019C7.18303 24.5603 5.54444 22.4539 4.67992 20" stroke="#101224" stroke-opacity="0.8" stroke-width="3" stroke-linecap="round" stroke-linejoin="round"/>
</g>
<defs>
<clipPath id="clip0_61_239">
<rect width="32" height="32" fill="white"/>
</clipPath>
</defs>
</svg>
